<svg width="2282" height="327" viewBox="0 0 2282 327" fill="none" xmlns="http://www.w3.org/2000/svg">
<path d="M2154.54 71.5116L2218.39 58.0371L2218.39 97.8747L2281.08 97.8747L2281.08 150.601L2218.39 150.601L2218.39 189.853C2218.39 199.226 2224.25 211.822 2281.37 202.448L2281.37 254.882C2270.67 257.308 2236.51 261.593 2207.26 256.346C2169.48 249.566 2152.49 231.155 2154.54 189.853L2154.54 150.601L2118.21 150.601L2118.21 97.8747L2154.54 97.8747L2154.54 71.5116Z" fill="white"/>
<path fill-rule="evenodd" clip-rule="evenodd" d="M1740.52 116.918C1748.43 107.252 1766.59 94.3633 1803.79 94.3633C1833.97 94.3633 1887.28 102.565 1887.28 178.139C1887.28 258.401 1818.44 258.401 1803.79 258.401C1789.15 258.401 1761.91 257.815 1740.52 237.017L1740.52 308.783L1676.67 308.783L1676.67 97.5855L1740.52 97.5854L1740.52 116.918ZM1756.93 175.796C1756.93 195.695 1773.06 211.826 1792.96 211.826C1812.85 211.826 1828.99 195.695 1828.99 175.796C1828.99 155.897 1812.85 139.766 1792.96 139.766C1773.06 139.766 1756.93 155.897 1756.93 175.796Z" fill="white"/>
<path d="M1648.25 145.331L1653.82 106.665C1630.38 99.6352 1588.5 95.5276 1552.76 97.5847C1511.75 99.9453 1487.73 108.413 1483.34 139.473C1473.14 211.532 1580.96 187.512 1577.07 211.532C1574.7 226.178 1512.04 217.39 1487.73 208.603C1486.36 215.34 1483.45 232.974 1481.58 248.44C1516.44 258.986 1560.52 261.102 1585.86 259.864C1645.85 256.934 1658.11 230.451 1659.97 217.683C1662.62 199.522 1664.36 183.997 1641.22 169.351C1618.08 154.705 1562.84 161.735 1564.18 145.331C1565.35 131.037 1620.72 139.375 1648.25 145.331Z" fill="white"/>
<path fill-rule="evenodd" clip-rule="evenodd" d="M1468.1 191.612C1470.74 138.886 1460.19 96.998 1367.63 96.998C1300.26 96.998 1265.98 123.654 1265.98 177.845C1265.98 232.036 1290.88 259.864 1366.46 259.864C1422.37 259.864 1442.32 251.912 1456.08 247.114C1457.1 246.76 1458.37 246.419 1459.31 246.096L1453.75 208.016C1428.85 217.097 1334.24 229.107 1334.24 191.612L1468.1 191.612ZM1401.9 162.027L1334.24 162.027C1334.24 153.532 1338.81 137.714 1368.8 137.714C1398.8 137.714 1401.02 152.361 1401.9 162.027Z" fill="white"/>
<path d="M987.703 175.406C987.736 159.429 988.928 144.735 1021.97 144.735C1048.91 144.735 1054.51 155.365 1055.66 167.352L1055.66 256.046L1119.52 256.046L1119.52 175.421C1119.55 159.438 1120.73 144.735 1153.79 144.735C1187.82 144.735 1187.79 161.707 1187.77 176.941C1187.77 177.338 1187.77 177.734 1187.77 178.128L1187.48 178.128L1187.48 256.046L1251.33 256.046L1251.33 178.128L1251.63 178.128C1253.09 112.22 1216.77 101.759 1198.61 97.8671C1180.45 93.9754 1143.42 91.6572 1119.52 108.998C1111.04 115.15 1108.39 118.958 1106.34 122.18C1100.48 111.927 1083.2 100.211 1069.14 97.8671C1050.58 93.7662 1008.32 91.4814 987.703 115.15L987.703 97.8671L923.845 97.8672L923.845 256.046L987.703 256.046L987.703 175.406Z" fill="white"/>
<path fill-rule="evenodd" clip-rule="evenodd" d="M776.798 94.6587C813.999 94.6587 832.16 107.547 840.069 117.214L840.069 97.8809L903.926 97.8809L903.926 256.06L840.069 256.06L840.069 237.313C818.686 258.11 791.444 258.696 776.798 258.696C762.151 258.696 692.143 258.696 692.143 178.435C692.143 102.861 746.626 94.6587 776.798 94.6587ZM784.706 213.293C804.605 213.293 820.736 197.162 820.736 177.263C820.736 157.365 804.605 141.234 784.706 141.234C764.808 141.234 748.677 157.365 748.677 177.263C748.677 197.162 764.808 213.293 784.706 213.293Z" fill="white"/>
<path d="M679.56 163.489L679.56 71.5107L537.199 71.5107L537.197 123.651L611.013 123.651L611.016 163.489C611.016 175.499 606.564 200.69 568.835 200.69C531.106 200.69 526.654 175.792 526.654 163.489L458.11 163.489C457.524 195.222 469.238 258.689 568.835 258.689C662.571 258.689 679.56 203.326 679.56 163.489Z" fill="white"/>
<path fill-rule="evenodd" clip-rule="evenodd" d="M2113.22 178.105C2113.22 224.222 2086.4 261.607 2005.33 261.607C1924.25 261.607 1897.43 225.263 1897.43 178.105C1897.43 130.947 1923.95 94.6025 2005.33 94.6025C2086.7 94.6025 2113.22 131.988 2113.22 178.105ZM2034.43 222.203C2058.26 222.203 2077.59 202.88 2077.59 179.044C2077.59 155.208 2058.26 135.886 2034.43 135.886C2010.59 135.886 1991.27 155.208 1991.27 179.044C1991.27 202.88 2010.59 222.203 2034.43 222.203Z" fill="white"/>
<path fill-rule="evenodd" clip-rule="evenodd" d="M159.004 41.4896C163.751 54.0286 176.584 65.6712 189.534 69.1413C202.484 72.6113 219.419 68.945 229.799 60.459C243.506 49.2534 262.224 44.5804 280.63 49.5124C311.015 57.654 329.046 88.8856 320.905 119.27C315.973 137.677 302.567 151.55 286.009 157.818C273.47 162.564 261.828 175.397 258.358 188.347C254.888 201.298 258.554 218.233 267.04 228.613C278.246 242.32 282.919 261.037 277.987 279.444C269.845 309.828 238.613 327.86 208.229 319.718C189.822 314.786 175.949 301.381 169.681 284.823C164.935 272.284 152.102 260.641 139.152 257.171C126.201 253.701 109.266 257.368 98.8863 265.853C85.1794 277.059 66.4619 281.732 48.0552 276.8C17.6706 268.659 -0.360935 237.427 7.78059 207.042C12.7126 188.636 26.1183 174.762 42.6761 168.495C55.2152 163.748 66.8577 150.915 70.3278 137.965C73.7979 125.015 70.1315 108.08 61.6456 97.6997C50.4399 83.9929 45.7669 65.2754 50.699 46.8687C58.8405 16.4841 90.0721 -1.54747 120.457 6.59405C138.863 11.5261 152.737 24.9318 159.004 41.4896ZM149.601 218.172C179.986 226.314 211.217 208.282 219.359 177.898C227.5 147.513 209.469 116.282 179.084 108.14C148.7 99.9985 117.468 118.03 109.327 148.415C101.185 178.799 119.217 210.031 149.601 218.172Z" fill="white"/>
<path d="M222.389 38.9369C215.222 51.351 199.348 55.6044 186.934 48.4371C174.52 41.2698 170.267 25.396 177.434 12.9818C184.601 0.567742 200.475 -3.68565 212.889 3.48164C225.303 10.6489 229.557 26.5228 222.389 38.9369Z" fill="white"/>
<path d="M148.868 313.321C141.701 325.735 125.827 329.989 113.413 322.821C100.999 315.654 96.7454 299.78 103.913 287.366C111.08 274.952 126.954 270.699 139.368 277.866C151.782 285.033 156.035 300.907 148.868 313.321Z" fill="white"/>
<path d="M322.821 212.89C315.654 225.304 299.78 229.557 287.366 222.39C274.952 215.223 270.698 199.349 277.865 186.935C285.033 174.521 300.907 170.267 313.321 177.434C325.735 184.602 329.988 200.476 322.821 212.89Z" fill="white"/>
<path d="M48.4366 139.368C41.2693 151.782 25.3955 156.036 12.9814 148.869C0.567268 141.701 -3.68612 125.827 3.48117 113.413C10.6485 100.999 26.5223 96.7458 38.9364 103.913C51.3505 111.08 55.6039 126.954 48.4366 139.368Z" fill="white"/>
</svg>
